<svg width="50" height="50" viewBox="0 0 50 50" fill="none" xmlns="http://www.w3.org/2000/svg">
<path d="M48.498 18.0402L35.5395 4.21324C33.5368 2.07638 30.2899 2.07638 28.2871 4.21324L7.08877 26.8322C7.08856 26.8323 7.08846 26.8324 7.08835 26.8326C5.08564 28.9691 2.31153 29.4731 0.309021 27.3364L7.08856 34.5703C7.08856 34.5703 7.08867 34.5704 7.08877 34.5705L10.2669 37.9615C10.7866 38.2476 11.4012 38.0632 11.8683 37.565L11.8684 37.5649L17.8849 31.145C18.4534 30.5386 19.3749 30.5386 19.9434 31.145L23.6213 35.0695C24.1898 35.676 24.1898 36.6593 23.6213 37.2658L17.6047 43.6856C17.1376 44.184 16.4325 44.272 15.8805 43.9514L20.0473 48.3974C22.0501 50.5343 25.2969 50.5343 27.2997 48.3974L48.498 25.7785C50.5007 23.6416 50.5007 20.177 48.498 18.0402Z" fill="#7E85F9"/>
<path d="M0.308994 27.3363C2.31145 29.473 5.08561 28.9689 7.08828 26.8325C7.08843 26.8324 7.08848 26.8322 7.08875 26.8321L23.2945 9.54036L15.7353 1.40134C13.5461 -0.955779 9.82189 -0.236825 8.54548 2.78929L0.0656723 26.1992C-0.0736284 26.584 0.0127495 27.0202 0.286132 27.3119L5.59788 32.9797L0.308994 27.3363Z" fill="#EEB18E"/>
</svg>
