<svg width="141" height="54" viewBox="0 0 141 54" fill="none" xmlns="http://www.w3.org/2000/svg">
<g id="Group 68">
<rect id="Rectangle 4" width="140.123" height="53.1641" rx="26.582" fill="#333C46"/>
<g id="Group 8">
<g id="Group">
<path id="Vector" d="M44.8397 32.195C44.2744 33.4527 44.0041 34.0137 43.2751 35.1255C42.2593 36.6771 40.8258 38.6109 39.0523 38.6273C37.4754 38.6417 37.0699 37.5978 34.9298 37.6101C32.7897 37.6224 32.3433 38.6458 30.7664 38.6314C28.9929 38.615 27.6351 36.8703 26.6194 35.3166C23.7769 30.9764 23.482 25.8819 25.2329 23.1754C26.4781 21.2498 28.442 20.1237 30.2892 20.1237C32.1692 20.1237 33.3529 21.1594 34.9073 21.1594C36.4166 21.1594 37.3361 20.1237 39.5089 20.1237C41.1534 20.1237 42.8941 21.0217 44.1352 22.5753C40.0701 24.8092 40.7315 30.6373 44.8397 32.195Z" fill="white"/>
<g id="Group_2">
<path id="Vector_2" d="M37.8618 18.3894C38.6523 17.3721 39.2523 15.9336 39.0332 14.4663C37.743 14.5547 36.2337 15.3788 35.351 16.4535C34.5503 17.4297 33.8909 18.8744 34.1469 20.28C35.5579 20.3232 37.016 19.4786 37.8618 18.3894Z" fill="white"/>
</g>
</g>
<g id="Group_3">
<g id="Group_4">
<path id="Vector_3" d="M53.4983 23.109L49.4271 35.1311H51.2907L52.5051 31.4402H56.4453L57.6945 35.1311H59.6093L55.5217 23.109H53.4983ZM54.4629 25.086C54.6001 25.6223 54.7496 26.1793 54.9401 26.7814L56.0378 29.9688H52.9167L53.998 26.7608C54.1619 26.2409 54.3175 25.6799 54.4629 25.086Z" fill="white"/>
<path id="Vector_4" d="M64.8804 26.2251C63.6455 26.2251 62.6564 26.7039 61.999 27.6123L61.9273 26.4162H60.2685L60.2787 26.5683C60.3279 27.3143 60.3484 28.1342 60.3484 29.3097V38.576H62.1608V34.2521C62.7239 34.9282 63.6209 35.3208 64.6387 35.3208C65.6975 35.3208 66.6744 34.9036 67.385 34.1494C68.1796 33.3068 68.5974 32.0964 68.5974 30.6496C68.5974 29.3714 68.2328 28.2658 67.5447 27.454C66.8689 26.6608 65.9228 26.2251 64.8804 26.2251ZM64.4278 27.7294C66.0436 27.7294 66.7665 29.2316 66.7665 30.7195C66.7665 32.6389 65.8429 33.8329 64.3582 33.8329C63.3445 33.8329 62.468 33.1403 62.2222 32.1457C62.1792 31.9916 62.1587 31.7881 62.1587 31.5559V30.0927C62.1587 29.9612 62.1874 29.7988 62.2161 29.6447C62.2243 29.5954 62.2345 29.5461 62.2427 29.4967C62.513 28.4569 63.41 27.7294 64.4278 27.7294Z" fill="white"/>
<path id="Vector_5" d="M74.2147 26.225C72.9799 26.225 71.9907 26.7038 71.3333 27.6121L71.2617 26.4161H69.6049L69.6131 26.5682C69.6622 27.3142 69.6827 28.1341 69.6827 29.3096V38.5758H71.4951V34.252C72.0583 34.9281 72.9553 35.3206 73.9731 35.3206C75.0319 35.3206 76.0087 34.9035 76.7214 34.1492C77.5139 33.3067 77.9338 32.0963 77.9338 30.6495C77.9338 29.3713 77.5692 28.2656 76.8791 27.4539C76.2033 26.6606 75.2571 26.225 74.2147 26.225ZM73.7622 27.7293C75.378 27.7293 76.1009 29.2315 76.1009 30.7194C76.1009 32.6388 75.1773 33.8328 73.6925 33.8328C72.6788 33.8328 71.8003 33.1402 71.5566 32.1456C71.5136 31.9914 71.4931 31.788 71.4931 31.5558V30.0926C71.4931 29.959 71.5217 29.7987 71.5504 29.6425C71.5586 29.5932 71.5688 29.5439 71.577 29.4966C71.8474 28.4568 72.7443 27.7293 73.7622 27.7293Z" fill="white"/>
<path id="Vector_6" d="M85.9082 28.2028C84.2166 27.5452 83.6739 27.0294 83.6739 26.0738C83.6739 25.2703 84.3108 24.4585 85.7341 24.4585C86.9075 24.4585 87.6591 24.8675 87.8619 24.9949L88.0155 25.0894L88.5274 23.5707L88.4271 23.5111C88.124 23.3324 87.2577 22.9172 85.7873 22.9172C83.4752 22.9172 81.8615 24.2859 81.8615 26.2464C81.8615 27.8268 82.8731 28.9324 85.0439 29.7236C86.5819 30.301 87.1553 30.8908 87.1553 31.904C87.1553 33.0507 86.2727 33.7617 84.8514 33.7617C83.9258 33.7617 82.9735 33.4905 82.2383 33.0178L82.0806 32.9171L81.5932 34.4707L81.6833 34.5303C82.3673 34.9886 83.6554 35.3215 84.747 35.3215C87.8619 35.3215 88.9677 33.4144 88.9677 31.7827C88.9657 30.1017 88.0789 29.0618 85.9082 28.2028Z" fill="white"/>
<path id="Vector_7" d="M92.2289 24.3455L90.4513 24.9065V26.4169H89.1488V27.8699H90.4513V32.3232C90.4513 33.4 90.6561 34.1542 91.0779 34.631C91.4834 35.0769 92.106 35.3215 92.831 35.3215C93.517 35.3215 94.0024 35.1859 94.2317 35.1037L94.3341 35.0667L94.2481 33.6096L94.074 33.6631C93.8447 33.7329 93.6092 33.7617 93.2303 33.7617C92.5279 33.7617 92.2289 33.3158 92.2289 32.2697V27.8678H94.416V26.4149H92.2289V24.3455Z" fill="white"/>
<path id="Vector_8" d="M98.9083 26.2251C96.3729 26.2251 94.6015 28.124 94.6015 30.8428C94.6015 33.4794 96.3156 35.3228 98.7711 35.3228H98.7874C100.862 35.3228 103.094 33.8719 103.094 30.6866C103.094 29.3919 102.695 28.2802 101.939 27.4684C101.177 26.6546 100.129 26.2251 98.9083 26.2251ZM98.855 27.6595C100.485 27.6595 101.229 29.2542 101.229 30.738C101.229 32.5608 100.215 33.8843 98.8202 33.8843H98.8018C97.4276 33.8843 96.4282 32.5834 96.4282 30.7894C96.4303 29.2337 97.1798 27.6595 98.855 27.6595Z" fill="white"/>
<path id="Vector_9" d="M108.643 26.3092L108.534 26.2825C108.375 26.2435 108.244 26.225 108.084 26.225C107.136 26.225 106.284 26.786 105.811 27.6902L105.757 26.4182H104.131L104.142 26.5702C104.191 27.2895 104.209 28.0992 104.209 29.1904L104.193 35.1336H106.005V30.4974C106.005 30.2447 106.022 30.0063 106.054 29.7925C106.259 28.6787 107.007 27.9594 107.961 27.9594C108.147 27.9594 108.293 27.9738 108.448 27.9903L108.643 28.0108V26.3092Z" fill="white"/>
<path id="Vector_10" d="M112.72 26.2075C110.308 26.2075 108.622 28.1413 108.622 30.9136C108.622 33.581 110.3 35.3052 112.894 35.3052C114.258 35.3052 115.209 35.0052 115.764 34.7524L115.872 34.7031L115.524 33.3468L115.372 33.4084C114.879 33.6098 114.221 33.8153 113.101 33.8153C112.313 33.8153 110.498 33.5543 110.386 31.1787L116.237 31.1972L116.261 31.08C116.298 30.8951 116.317 30.6464 116.317 30.3217C116.317 28.4249 115.377 26.2075 112.72 26.2075ZM112.6 27.5926C113.152 27.5926 113.599 27.7632 113.931 28.1023C114.453 28.6345 114.543 29.4196 114.555 29.7956H110.421C110.591 28.7434 111.244 27.5926 112.6 27.5926Z" fill="white"/>
</g>
<g id="Group_5">
<path id="Vector_11" d="M49.4273 14.8966C49.9331 14.8287 50.5209 14.7794 51.166 14.7794C52.3353 14.7794 53.1668 15.0158 53.7177 15.4802C54.287 15.9446 54.6146 16.6105 54.6146 17.5311C54.6146 18.46 54.287 19.2183 53.7074 19.7424C53.1094 20.2746 52.1367 20.5623 50.912 20.5623C50.3222 20.5623 49.8471 20.5459 49.4252 20.4945V14.8966H49.4273ZM50.2505 19.9355C50.4553 19.9684 50.7543 19.9684 51.0738 19.9684C52.8125 19.9766 53.7566 19.0909 53.7566 17.5537C53.7668 16.1953 52.9251 15.3589 51.2049 15.3589C50.785 15.3589 50.4656 15.3939 50.2505 15.435V19.9355Z" fill="white"/>
<path id="Vector_12" d="M57.53 20.6033C56.3135 20.6033 55.3613 19.7936 55.3613 18.5009C55.3613 17.1323 56.3607 16.3308 57.6037 16.3308C58.9042 16.3308 59.7827 17.1837 59.7827 18.4249C59.7827 19.9436 58.6134 20.6033 57.5403 20.6033H57.53ZM57.5587 20.0443C58.343 20.0443 58.9328 19.3764 58.9328 18.4496C58.9328 17.757 58.5499 16.8877 57.5771 16.8877C56.6146 16.8877 56.1927 17.6974 56.1927 18.4742C56.1927 19.3682 56.7538 20.0443 57.5484 20.0443H57.5587Z" fill="white"/>
<path id="Vector_13" d="M61.0867 16.4233L61.6949 18.4928C61.8157 18.949 61.9386 19.3785 62.0225 19.8018H62.0512C62.1536 19.3888 62.3031 18.949 62.4526 18.501L63.1919 16.4233H63.8841L64.5845 18.4661C64.7524 18.9469 64.8835 19.3867 64.9859 19.7998H65.0146C65.0903 19.3867 65.2112 18.9552 65.3607 18.4743L66.0057 16.4233H66.8188L65.3607 20.5088H64.6132L63.921 18.5585C63.7612 18.0941 63.6302 17.6893 63.5196 17.2084H63.5011C63.3885 17.6975 63.2493 18.129 63.0895 18.5668L62.3605 20.5088H61.613L60.247 16.4233H61.0867Z" fill="white"/>
<path id="Vector_14" d="M67.6408 17.5289C67.6408 17.0973 67.6306 16.7603 67.6039 16.4233H68.333L68.3801 17.0912H68.3985C68.6238 16.711 69.146 16.3308 69.8935 16.3308C70.5202 16.3308 71.4929 16.6678 71.4929 18.0694V20.5087H70.6717V18.1536C70.6717 17.496 70.3994 16.9391 69.6252 16.9391C69.0928 16.9391 68.6709 17.2844 68.5214 17.6995C68.4845 17.792 68.4661 17.9276 68.4661 18.0447V20.5108H67.6429V17.5289H67.6408Z" fill="white"/>
<path id="Vector_15" d="M72.829 14.5164H73.6523V20.5109H72.829V14.5164Z" fill="white"/>
<path id="Vector_16" d="M76.8576 20.6033C75.6432 20.6033 74.6889 19.7936 74.6889 18.5009C74.6889 17.1323 75.6883 16.3308 76.9334 16.3308C78.2318 16.3308 79.1104 17.1837 79.1104 18.4249C79.1104 19.9436 77.941 20.6033 76.8658 20.6033H76.8576ZM76.8863 20.0443C77.6707 20.0443 78.2605 19.3764 78.2605 18.4496C78.2605 17.757 77.8775 16.8877 76.9047 16.8877C75.9422 16.8877 75.5204 17.6974 75.5204 18.4742C75.5204 19.3682 76.0815 20.0443 76.8761 20.0443H76.8863Z" fill="white"/>
<path id="Vector_17" d="M83.3344 19.5312C83.3344 19.8846 83.3529 20.2319 83.4 20.5094H82.6607L82.5849 19.9956H82.5583C82.3146 20.3162 81.819 20.6039 81.1739 20.6039C80.2585 20.6039 79.7895 20.0223 79.7895 19.4305C79.7895 18.442 80.7622 17.9015 82.5091 17.9118V17.8275C82.5091 17.4905 82.4067 16.874 81.4811 16.8822C81.051 16.8822 80.6107 16.9911 80.2933 17.1863L80.1069 16.689C80.4817 16.4773 81.0326 16.3335 81.6019 16.3335C82.9945 16.3335 83.3303 17.1863 83.3303 18.0043V19.5312H83.3344ZM82.5296 18.4255C81.6326 18.4091 80.6127 18.553 80.6127 19.3462C80.6127 19.8353 80.967 20.0552 81.3787 20.0552C81.9767 20.0552 82.3596 19.7182 82.4907 19.3709C82.5194 19.2948 82.5276 19.2106 82.5276 19.1345V18.4255H82.5296Z" fill="white"/>
<path id="Vector_18" d="M88.5638 14.5164V19.4546C88.5638 19.8184 88.574 20.2315 88.6006 20.5109H87.8613L87.8245 19.8019H87.8061C87.5542 20.2582 87.0115 20.6034 86.2722 20.6034C85.1786 20.6034 84.3267 19.767 84.3267 18.5258C84.3164 17.1571 85.2625 16.331 86.3561 16.331C87.0586 16.331 87.5255 16.6269 87.7221 16.9475H87.7405V14.5164H88.5638ZM87.7426 18.086C87.7426 17.9853 87.7344 17.8661 87.7057 17.7654C87.5849 17.301 87.1364 16.9125 86.5179 16.9125C85.668 16.9125 85.1622 17.5887 85.1622 18.4826C85.1622 19.319 85.6209 20.0013 86.4995 20.0013C87.0504 20.0013 87.5562 19.6643 87.7057 19.1156C87.7344 19.0149 87.7426 18.9121 87.7426 18.795V18.086Z" fill="white"/>
<path id="Vector_19" d="M93.7517 20.6033C92.5373 20.6033 91.5829 19.7936 91.5829 18.5009C91.5829 17.1323 92.5844 16.3308 93.8275 16.3308C95.1279 16.3308 96.0064 17.1837 96.0064 18.4249C96.0064 19.9436 94.8371 20.6033 93.764 20.6033H93.7517ZM93.7804 20.0443C94.5647 20.0443 95.1545 19.3764 95.1545 18.4496C95.1545 17.757 94.7715 16.8877 93.7988 16.8877C92.8363 16.8877 92.4144 17.6974 92.4144 18.4742C92.4144 19.3682 92.9755 20.0443 93.7701 20.0443H93.7804Z" fill="white"/>
<path id="Vector_20" d="M97.0422 17.5289C97.0422 17.0973 97.0319 16.7603 97.0053 16.4233H97.7344L97.7815 17.0912H97.7999C98.0252 16.711 98.5474 16.3308 99.2949 16.3308C99.9215 16.3308 100.894 16.6678 100.894 18.0694V20.5087H100.071V18.1536C100.071 17.496 99.8007 16.9391 99.0246 16.9391C98.4921 16.9391 98.0702 17.2844 97.9207 17.6995C97.8839 17.792 97.8654 17.9276 97.8654 18.0447V20.5108H97.0422V17.5289Z" fill="white"/>
<path id="Vector_21" d="M105.201 15.4448V16.423H106.379V16.9882H105.201V19.1912C105.201 19.6967 105.361 19.9844 105.818 19.9844C106.041 19.9844 106.172 19.968 106.295 19.9331L106.332 20.4982C106.172 20.5496 105.92 20.5989 105.603 20.5989C105.22 20.5989 104.911 20.4797 104.714 20.2865C104.489 20.0584 104.397 19.6947 104.397 19.2138V16.9841H103.696V16.4189H104.397V15.6668L105.201 15.4448Z" fill="white"/>
<path id="Vector_22" d="M107.308 14.5164H108.131V17.0667H108.15C108.281 16.855 108.486 16.6618 108.74 16.5426C108.983 16.407 109.272 16.331 109.581 16.331C110.188 16.331 111.16 16.668 111.16 18.0778V20.5089H110.337V18.162C110.337 17.4941 110.067 16.9454 109.291 16.9454C108.758 16.9454 108.346 17.2825 108.187 17.6894C108.14 17.7901 108.129 17.901 108.129 18.0449V20.5109H107.306V14.5164H107.308Z" fill="white"/>
<path id="Vector_23" d="M112.962 18.5938C112.981 19.5987 113.683 20.0118 114.504 20.0118C115.094 20.0118 115.459 19.9193 115.758 19.8084L115.907 20.3324C115.616 20.4516 115.112 20.5934 114.392 20.5934C113.007 20.5934 112.165 19.757 112.165 18.5342C112.165 17.293 112.978 16.323 114.297 16.323C115.774 16.323 116.157 17.4964 116.157 18.2486C116.157 18.4007 116.149 18.5178 116.13 18.6021L112.962 18.5938ZM115.366 18.0616C115.375 17.5971 115.151 16.8532 114.234 16.8532C113.392 16.8532 113.038 17.5458 112.972 18.0616H115.366Z" fill="white"/>
</g>
</g>
</g>
</g>
</svg>
