<svg width="54" height="54" viewBox="0 0 54 54" fill="none" xmlns="http://www.w3.org/2000/svg">
<path d="M54 42.4281C54 44.1911 52.5709 45.6203 50.808 45.6203H3.19201C1.4291 45.6204 0 44.1911 0 42.4281V11.5718C0 9.80874 1.4291 8.37964 3.19201 8.37964H50.808C52.571 8.37964 54 9.80885 54 11.5718V42.4281Z" fill="white"/>
<path d="M11.9853 27.2146L10.7173 21.1321C10.5006 20.2933 9.86987 20.0438 9.08181 20.0107H3.26858L3.2168 20.2887C7.74447 21.3863 10.7403 24.0342 11.9853 27.2146Z" fill="#F79F1A"/>
<path d="M25.4554 20.1333H21.6994L19.3535 33.8998H23.1034L25.4554 20.1333Z" fill="#059BBF"/>
<path d="M14.2749 33.8859L20.1822 20.1426H16.207L12.5321 29.5322L12.1399 28.1145C11.4195 26.409 9.36077 23.9542 6.94385 22.4089L10.303 33.8905L14.2749 33.8859Z" fill="#059BBF"/>
<path d="M36.1685 29.3995C36.1824 27.8365 35.1789 26.6444 33.0164 25.6598C31.7021 25.0238 30.9011 24.5997 30.9107 23.9543C30.9107 23.3842 31.5891 22.7717 33.0589 22.7717C34.2887 22.7528 35.1743 23.0214 35.8669 23.2994L36.2063 23.455L36.7153 20.4726C35.9707 20.1945 34.8069 19.8977 33.3513 19.8977C29.6434 19.8977 27.0333 21.7636 27.0097 24.4396C26.9861 26.4185 28.8757 27.521 30.2983 28.1805C31.7588 28.8527 32.2488 29.2829 32.2394 29.886C32.23 30.8081 31.0755 31.2286 29.9967 31.2286C28.4938 31.2286 27.6975 31.0214 26.4625 30.5069L25.9827 30.2865L25.4555 33.3713C26.3312 33.7541 27.9518 34.0886 29.634 34.1026C33.5771 34.1026 36.1402 32.2604 36.1685 29.3995Z" fill="#059BBF"/>
<path d="M40.63 31.8364C41.0588 31.8364 44.8891 31.8411 45.4358 31.8411C45.5489 32.3205 45.8928 33.9046 45.8928 33.9046H49.3745L46.3356 20.1475H43.4382C42.5382 20.1475 41.8694 20.3925 41.4735 21.2875L35.9 33.9046H39.8437C39.8434 33.9046 40.484 32.2088 40.63 31.8364ZM43.2023 25.1697C43.1838 25.2073 43.5135 24.3735 43.7019 23.8552L43.9562 25.0424C43.9562 25.0424 44.6726 28.3311 44.8232 29.019H41.7089C42.0199 28.2275 43.2023 25.1697 43.2023 25.1697Z" fill="#059BBF"/>
<path d="M50.808 8.37964H3.19201C1.4291 8.37964 0 9.80874 0 11.5718V14.8847H54V11.5718C54 9.80874 52.571 8.37964 50.808 8.37964Z" fill="#059BBF"/>
<path d="M50.808 45.6203H3.19201C1.4291 45.6203 0 44.1911 0 42.4282V39.1152H54V42.4282C54 44.1911 52.571 45.6203 50.808 45.6203Z" fill="#F79F1A"/>
<path opacity="0.15" d="M2.26937 42.4281V11.5718C2.26937 9.80874 3.69858 8.37964 5.46159 8.37964H3.19191C1.4291 8.37964 0 9.80874 0 11.5718V42.4282C0 44.1912 1.4291 45.6205 3.19201 45.6205H5.4617C3.69868 45.6205 2.26937 44.1911 2.26937 42.4281Z" fill="#202121"/>
</svg>
