<svg width="60" height="60" viewBox="0 0 60 60" fill="none" xmlns="http://www.w3.org/2000/svg">
<path d="M55.9032 12.0139H4.097C2.09425 12.0139 0.470703 13.6375 0.470703 15.6402V46.1454C0.470703 48.1482 2.09425 49.7717 4.097 49.7717H55.9032C57.906 49.7717 59.5295 48.1482 59.5295 46.1454V15.6402C59.5295 13.6375 57.906 12.0139 55.9032 12.0139Z" fill="url(#paint0_linear_150_5342)"/>
<path fill-rule="evenodd" clip-rule="evenodd" d="M16.2215 30.5329L16.4844 29.4949C17.4948 29.1904 19.5571 29.052 19.9446 30.1454C20.1661 30.7821 19.5294 33.4257 19.4048 34.2008L18.4221 34.2146C18.2007 33.9378 18.3806 34.4499 18.2284 33.7717C17.2872 34.616 15.2803 34.4776 15.4325 32.7752C15.5848 31.0866 17.0519 31.308 18.6436 31.0589C18.6159 29.9793 17.2595 30.27 16.2076 30.5191L16.2215 30.5329ZM23.6263 30.3669C22.7266 30.3669 22.5882 30.1731 21.7993 30.5191C21.8962 31.5018 22.4083 31.1143 23.1142 31.5848C24.4567 32.4707 23.0173 35.2111 19.8201 34.0347L20 33.0381C20.8997 33.2181 21.3564 33.398 22.0484 33.0104C22.2145 31.6125 19.737 32.526 20.4291 30.2838C20.8028 29.0658 22.4498 29.2319 23.8062 29.3565L23.6125 30.3669H23.6263ZM9.84083 28.2492L11.9585 28.3184L12.1799 31.6402L13.3287 28.9828C13.7163 28.0278 13.4533 28.2354 15.8893 28.263L14.7958 34.2008L13.6055 34.1869L14.2561 29.9239L12.4983 34.2146L11.0727 34.1731C11.0311 33.3426 10.9619 30.4222 10.7405 29.8686L10.0208 34.1869L8.77509 34.1731L9.84083 28.2492ZM30.0346 40.8582L30.6159 40.1662C29.4533 40.0139 29.2457 40.3461 28.7197 39.4049L31.391 39.3772C31.5571 39.1004 31.8339 38.8374 31.9723 38.5191C28.9273 38.3115 28.0692 39.0866 27.5848 37.7579H32.4706L33.0104 36.9136L26.9758 36.8859L26.699 36.18L33.2042 36.1523C33.5779 35.9447 33.5779 35.7094 33.6747 35.2803L27.5156 35.2665C26.4083 35.2803 26.3391 35.5295 26.1315 34.5191H33.8824L34.1315 33.661L31.8616 33.6333L31.7509 34.2146L30.4498 34.1592L31.2664 29.3288L32.4983 29.4949C32.4983 29.5226 32.526 29.6194 32.526 29.661C32.526 29.6887 32.5398 29.7302 32.5398 29.744L32.609 29.9931C32.955 29.5779 33.1765 29.2734 33.9792 29.3011L33.564 30.4222C33.3287 30.7267 32.6367 30.3807 32.346 31.2111L33.7024 31.2665C33.8547 30.3945 34.0208 30.1316 34.2699 29.4257L34.2837 29.0104L25.7993 29.0243L25.7716 29.3288C26.2284 29.3288 26.2145 29.2457 26.4775 29.4672L26.3529 30.2838C25.4948 30.4914 25.5225 29.9793 25.4394 31.1004C25.564 31.308 25.4118 31.1973 25.6747 31.2665L26.2145 31.2803C27.0865 28.443 29.6886 29.0658 30.2837 29.9516C30.6021 30.4222 30.9204 31.9724 30.1315 32.097L27.4879 32.1246C27.6125 33.5226 29.218 33.2319 30.2561 32.8859C30.2145 33.4672 30.2561 33.9378 29.7163 34.1316C29.2872 34.2838 28.3875 34.2423 27.917 34.1316C26.7543 33.8686 26.2561 33.2873 26.173 32.0278L25.6747 32.0139C25.218 31.8063 25.5779 32.0139 25.3426 31.4464C25.1488 32.6091 24.6228 33.3565 26.0623 33.1904C25.9792 33.8824 26.0761 34.1177 25.3149 34.2008C23.1003 34.4637 23.8201 32.9828 24.1799 31.0035C24.7474 27.8478 24.3045 28.2354 25.91 28.263L34.1592 28.2769L33.9931 27.4188L26.0208 27.3911L26.173 26.699L33.7163 26.6575C33.5225 25.481 33.481 25.7717 30.7405 25.7717H26.5606C26.8512 24.7613 26.699 25.0381 29.4118 25.0381H33.0796L32.692 24.1662L27.3772 24.1523L27.737 23.4326L32.1799 23.4049C31.6125 22.2423 31.6401 22.5745 28.4983 22.5191C28.8997 21.5226 29.6055 21.7717 30.8374 21.7717C30.4914 21.2181 30.2422 21.2596 30.0346 20.789C29.5225 20.526 29.0657 20.0554 28.5536 19.6956C24.6367 16.9274 19.3218 16.6367 15.0588 18.7129C11.2249 20.5675 7.46021 24.8582 7.50173 30.7959C7.55709 39.2803 15.0035 45.4672 23.4325 44.0278C27.391 43.3496 28.3875 41.744 30.0208 40.8444L30.0346 40.8582Z" fill="#E41D2C"/>
<path fill-rule="evenodd" clip-rule="evenodd" d="M39.0725 29.4532C43.3631 28.5812 42.6573 30.6989 42.3112 32.4151C42.2005 32.9273 42.2005 33.9376 41.7991 34.2144C41.7022 34.2144 41.1348 34.2283 41.0794 34.2006C40.6919 34.0484 40.8718 34.5051 40.8164 33.7992C39.6538 34.4636 37.813 34.6158 38.0344 32.7612C38.2144 31.2802 39.7092 31.0449 41.2317 31.1141C41.1763 30.0207 40.1798 30.2006 38.7957 30.5466L39.0863 29.4532H39.0725ZM43.3078 29.3286L44.4566 29.3425C44.4704 29.3702 44.4843 29.4117 44.4843 29.4394L44.6642 29.9515C44.8718 29.6331 45.2593 29.3563 45.8683 29.3425L45.7022 30.3252L45.1348 30.5466C43.9998 30.9203 44.069 32.3459 43.7645 34.2144H42.4773L43.3078 29.3286ZM49.4116 28.2767H50.5881L49.5777 34.2283C48.2628 34.2421 48.5811 34.3113 48.1659 33.8131C47.3078 35.0864 44.7334 33.9099 45.5223 31.2802C46.1036 29.3148 48.069 28.7888 49.0379 29.9515L49.4254 28.2629L49.4116 28.2767ZM30.0483 20.8027C30.2559 21.2733 30.5189 21.2317 30.851 21.7854C29.6192 21.7854 28.9133 21.5224 28.5119 22.5328C31.6538 22.5882 31.6261 22.256 32.1936 23.4186L27.7507 23.4463L27.3908 24.166L32.7057 24.1798L33.0933 25.0518H29.4254C26.7265 25.0518 26.8649 24.7888 26.5742 25.7854H30.7542C33.4946 25.7854 33.5362 25.4947 33.7299 26.6712L26.1867 26.7127L26.0344 27.4048L34.0068 27.4324L34.1728 28.2906L25.9237 28.2767L25.813 29.0518L34.2974 29.038L34.2836 29.4532C34.9202 28.8442 34.8095 28.5259 35.9998 28.1798C36.9825 27.903 37.6054 28.1106 38.5742 28.3183L38.3666 29.5916C36.7057 29.0933 35.6261 29.2179 35.2386 30.9342C34.8095 32.775 36.2628 33.467 37.7991 32.7335C37.6607 34.076 37.4393 34.4082 35.8614 34.2006C34.768 34.0622 34.4358 33.5362 33.9514 32.8857H31.9722L31.8614 33.647L34.1313 33.6747L33.8822 34.5328H26.1313C26.3389 35.5432 26.4081 35.294 27.5154 35.2802L33.6746 35.294C33.5638 35.7093 33.5777 35.9584 33.204 36.166L26.6988 36.1937L26.9756 36.8996L33.0102 36.9272L32.4704 37.7715H27.5846C28.069 39.0864 28.9272 38.3252 31.9722 38.5328C31.8337 38.8511 31.5569 39.1141 31.3908 39.3909L28.7196 39.4186C29.2317 40.3459 29.4531 40.0276 30.6158 40.1798L30.0344 40.8719C32.0137 42.3252 33.55 43.5432 36.7472 44.0968C39.6538 44.5951 42.6849 44.0414 45.024 42.8926C55.1555 37.8961 54.8787 23.5016 44.941 18.7404C41.3701 17.038 36.6365 16.8857 32.941 18.8234C31.1555 19.7508 30.7265 20.4151 30.0621 20.8165L30.0483 20.8027Z" fill="#F8B02B"/>
<path fill-rule="evenodd" clip-rule="evenodd" d="M8.7749 34.187L10.0206 34.2008L10.7403 29.8825C10.9618 30.4361 11.031 33.3565 11.0725 34.187L12.4981 34.2285L14.2559 29.9378L13.6054 34.2008L14.7957 34.2146L15.8891 28.2769C13.4531 28.2493 13.7161 28.0417 13.3285 28.9967L12.1797 31.6541L11.9583 28.3323L9.84065 28.2631L8.7749 34.187ZM47.3354 33.0935C46.2974 32.0278 47.1832 30.2562 48.152 30.4915C49.1071 30.7268 48.9271 33.0659 47.3354 33.0935ZM49.024 29.9517C48.0552 28.7891 46.1036 29.315 45.5084 31.2804C44.7195 33.8963 47.2939 35.0866 48.152 33.8133C48.5673 34.3115 48.2489 34.2285 49.5638 34.2285L50.5742 28.2769H49.3977L49.0102 29.9655L49.024 29.9517ZM39.5154 33.1074C39.3216 32.1801 40.1797 31.8202 40.9963 31.9863C41.0379 32.9275 40.3735 33.4396 39.5154 33.1074ZM39.0725 29.4673L38.7818 30.5607C40.1659 30.2285 41.1763 30.0486 41.2178 31.1282C39.6953 31.0589 38.2005 31.2942 38.0206 32.7752C37.7853 34.6299 39.6399 34.4776 40.8026 33.8133C40.8579 34.5191 40.678 34.0624 41.0655 34.2146C41.1209 34.2423 41.6884 34.2285 41.7853 34.2285C42.2005 33.9655 42.2005 32.9413 42.2974 32.4292C42.6572 30.6991 43.3493 28.5953 39.0586 29.4673H39.0725ZM18.422 31.9448C18.4496 32.4153 18.3666 32.7752 18.0621 33.0105C17.8545 33.1627 17.2316 33.3427 16.9825 33.1074C16.2074 32.4015 17.6607 31.9309 18.4081 31.9448H18.422ZM16.2213 30.533C17.2732 30.2839 18.6296 29.9932 18.6573 31.0728C17.0656 31.3219 15.5984 31.1005 15.4462 32.789C15.2801 34.4915 17.287 34.6299 18.242 33.7856C18.3943 34.4638 18.2143 33.9517 18.4358 34.2285L19.4185 34.2146C19.5431 33.4257 20.1797 30.796 19.9583 30.1593C19.5707 29.052 17.5223 29.1904 16.4981 29.5088L16.2351 30.5468L16.2213 30.533ZM27.6953 31.225C27.8752 30.5192 28.1797 30.2285 28.9963 30.3392C29.287 30.7544 29.287 30.6299 29.3424 31.225H27.6953ZM26.2282 31.2942L26.1728 32.0416C26.2559 33.3012 26.768 33.8686 27.9168 34.1454C28.3874 34.2562 29.287 34.2977 29.7161 34.1454C30.2559 33.9655 30.2143 33.4811 30.2559 32.8998C29.2178 33.2458 27.6123 33.5365 27.4877 32.1385L30.1313 32.1108C30.9202 31.9863 30.6019 30.45 30.2835 29.9655C29.6884 29.0797 27.0863 28.4569 26.2143 31.2942H26.2282ZM34.2835 29.4534C34.0344 30.1593 33.8683 30.4223 33.7161 31.2942V32.0555L33.9514 32.8998C34.4358 33.5503 34.768 34.0762 35.8614 34.2146C37.4392 34.4223 37.6607 34.0901 37.7991 32.7475C36.2489 33.4811 34.8095 32.789 35.2386 30.9482C35.6399 29.2181 36.7195 29.1074 38.3666 29.6057L38.5742 28.3323C37.6053 28.1385 36.9825 27.9309 35.9998 28.1939C34.8095 28.5261 34.9202 28.8583 34.2835 29.4673V29.4534ZM23.806 29.3565C22.4496 29.2458 20.8026 29.0659 20.4289 30.2839C19.7368 32.5261 22.2005 31.6126 22.0483 33.0105C21.3424 33.398 20.8995 33.2181 19.9998 33.0382L19.8199 34.0347C23.0171 35.2112 24.4427 32.4845 23.114 31.5849C22.4081 31.1143 21.896 31.5157 21.7991 30.5192C22.588 30.1593 22.7126 30.3669 23.6261 30.3669L23.8199 29.3565H23.806Z" fill="#FEFEFE"/>
<path fill-rule="evenodd" clip-rule="evenodd" d="M25.3566 31.4602L25.4535 31.128C25.5366 30.0069 25.5089 30.519 26.367 30.3114L26.4916 29.4948C26.2286 29.2733 26.2424 29.3564 25.7857 29.3564L25.8134 29.0519L25.9241 28.2768C24.3186 28.2491 24.7615 27.8616 24.194 31.0173C23.8341 32.9965 23.1144 34.4775 25.3289 34.2145C26.0763 34.1315 25.9933 33.8962 26.0763 33.2041C24.6507 33.3702 25.1767 32.6228 25.3566 31.4602ZM31.8618 33.6609L31.9725 32.8996L32.111 32.0692L32.3601 31.2387C32.6646 30.4083 33.3566 30.7543 33.5781 30.4498L33.9933 29.3287C33.1767 29.301 32.9552 29.6055 32.6231 30.0207L32.5539 29.7716C32.5539 29.7577 32.54 29.7162 32.54 29.6885C32.54 29.6609 32.5123 29.5501 32.5123 29.5225L31.2805 29.3564L30.4639 34.1868L31.7649 34.2422L31.8757 33.6609H31.8618ZM42.4777 34.2145H43.7649C44.0694 32.346 44.0002 30.9204 45.1352 30.5467L45.7027 30.3252L45.8687 29.3425C45.2598 29.3564 44.8722 29.6332 44.6646 29.9515L44.4847 29.4394C44.4708 29.4117 44.4708 29.3702 44.457 29.3425L43.3082 29.3287L42.4777 34.2145Z" fill="#FEFEFE"/>
<path fill-rule="evenodd" clip-rule="evenodd" d="M47.3354 33.0933C48.941 33.0656 49.1209 30.7265 48.152 30.4912C47.1693 30.2559 46.2974 32.0276 47.3354 33.0933Z" fill="#F8B02B"/>
<path fill-rule="evenodd" clip-rule="evenodd" d="M18.4221 31.9446C17.6747 31.9308 16.2215 32.4014 16.9965 33.1073C17.2457 33.3287 17.8685 33.1488 18.0761 33.0104C18.3806 32.7889 18.4498 32.4152 18.436 31.9446H18.4221ZM31.9723 32.8858L33.9516 32.8996L33.7163 32.0554H32.1107L31.9723 32.8858Z" fill="#E41D2C"/>
<path fill-rule="evenodd" clip-rule="evenodd" d="M39.5157 33.1072C40.3877 33.4255 41.0382 32.9273 40.9967 31.9861C40.1662 31.8338 39.3219 32.1937 39.5157 33.1072ZM32.1108 32.0553H33.7164V31.2941L32.36 31.2249L32.1108 32.0553Z" fill="#F8B02B"/>
<path fill-rule="evenodd" clip-rule="evenodd" d="M27.6953 31.2249H29.3424C29.3008 30.6435 29.287 30.7543 28.9963 30.339C28.1797 30.2283 27.8752 30.519 27.6953 31.2249Z" fill="#E41D2C"/>
<path fill-rule="evenodd" clip-rule="evenodd" d="M25.3564 31.4603C25.5917 32.0277 25.2318 31.8201 25.6886 32.0277L26.1868 32.0416L26.2422 31.2942L25.7024 31.2803C25.4256 31.225 25.5779 31.3219 25.4671 31.1143L25.3702 31.4464L25.3564 31.4603Z" fill="#F8B02B"/>
<defs>
<linearGradient id="paint0_linear_150_5342" x1="29.9996" y1="12.0192" x2="29.9996" y2="49.7799" gradientUnits="userSpaceOnUse">
<stop stop-color="#F8F8F8"/>
<stop offset="1" stop-color="#E0E0E0"/>
</linearGradient>
</defs>
</svg>
