<svg width="70" height="70" viewBox="0 0 70 70" fill="none" xmlns="http://www.w3.org/2000/svg">
<rect width="70" height="70" rx="8" fill="#ECEDFE"/>
<path d="M33 28.9995V26.9995H21C19.898 26.9995 19 27.8975 19 28.9995V32.9995H33.422C33.144 31.7775 33 30.4615 33 28.9995Z" fill="#7E85F9"/>
<path d="M50.918 36.9995C49.554 39.1015 47.474 40.8895 44.494 42.6015C44.036 42.8635 43.52 42.9995 43 42.9995C42.48 42.9995 41.964 42.8635 41.512 42.6055C38.532 40.8895 36.452 39.0995 35.086 36.9995H19V46.9995C19 48.1035 19.898 48.9995 21 48.9995H49C50.104 48.9995 51 48.1035 51 46.9995V36.9995H50.918ZM28 42.9995H24C23.448 42.9995 23 42.5515 23 41.9995C23 41.4475 23.448 40.9995 24 40.9995H28C28.552 40.9995 29 41.4475 29 41.9995C29 42.5515 28.552 42.9995 28 42.9995Z" fill="#7E85F9"/>
<path d="M50.394 24.0815L43.394 21.0815C43.14 20.9735 42.858 20.9735 42.604 21.0815L35.604 24.0815C35.238 24.2375 35 24.5995 35 24.9995V28.9995C35 34.5015 37.034 37.7175 42.502 40.8675C42.656 40.9555 42.828 40.9995 43 40.9995C43.172 40.9995 43.344 40.9555 43.498 40.8675C48.966 37.7255 51 34.5095 51 28.9995V24.9995C51 24.5995 50.762 24.2375 50.394 24.0815ZM46.782 28.6255L42.782 33.6255C42.59 33.8615 42.302 33.9995 42 33.9995C41.986 33.9995 41.97 33.9995 41.958 33.9995C41.64 33.9855 41.346 33.8215 41.168 33.5555L39.168 30.5555C38.862 30.0955 38.986 29.4755 39.446 29.1695C39.902 28.8655 40.524 28.9855 40.832 29.4475L42.074 31.3095L45.218 27.3775C45.564 26.9475 46.194 26.8795 46.624 27.2215C47.056 27.5635 47.124 28.1935 46.782 28.6255Z" fill="#7E85F9"/>
</svg>
