<svg width="70" height="70" viewBox="0 0 70 70" fill="none" xmlns="http://www.w3.org/2000/svg">
<rect width="70" height="70" rx="8" fill="#FFF7E8"/>
<g clip-path="url(#clip0_150_5386)">
<path d="M25.1226 28.3544L30.4056 27.5868L32.7683 22.7996C33.6805 20.951 36.3193 20.9503 37.2319 22.7995L39.5946 27.5868L44.8777 28.3544C46.9177 28.6508 47.7336 31.1601 46.257 32.5996L42.4341 36.326L43.3366 41.5876C43.6851 43.6192 41.5509 45.1708 39.7254 44.2113L35.0001 41.727L30.2748 44.2113C28.4471 45.172 26.316 43.6147 26.6638 41.5876L27.5662 36.326L23.7433 32.5996C22.2672 31.1606 23.0818 28.651 25.1226 28.3544Z" fill="#FFCB67"/>
<path d="M42.5793 21.947L43.855 20.1913C44.2013 19.7148 44.8684 19.6091 45.3449 19.9554C45.8214 20.3017 45.9271 20.9687 45.5808 21.4453L44.3051 23.201C43.9586 23.6778 43.2915 23.7831 42.8153 23.4369C42.3387 23.0907 42.2331 22.4236 42.5793 21.947Z" fill="#FFCB67"/>
<path d="M46.8127 37.6817C46.9948 37.1215 47.5964 36.8147 48.1568 36.9969L50.2627 37.6812C50.8229 37.8632 51.1295 38.465 50.9475 39.0253C50.7651 39.5866 50.1622 39.8919 49.6034 39.7101L47.4974 39.0258C46.9372 38.8438 46.6306 38.242 46.8127 37.6817Z" fill="#FFCB67"/>
<path d="M24.6551 19.9554C25.1316 19.6091 25.7987 19.7147 26.145 20.1913L27.4207 21.947C27.767 22.4236 27.6613 23.0907 27.1847 23.4369C26.708 23.7833 26.0411 23.6774 25.6949 23.201L24.4192 21.4453C24.0729 20.9687 24.1786 20.3017 24.6551 19.9554Z" fill="#FFCB67"/>
<path d="M19.7372 37.6813L21.8432 36.997C22.4034 36.8146 23.0052 37.1215 23.1872 37.6818C23.3693 38.242 23.0627 38.8438 22.5024 39.0258L20.3964 39.7101C19.8373 39.892 19.2347 39.5863 19.0524 39.0253C18.8704 38.4651 19.1769 37.8633 19.7372 37.6813Z" fill="#FFCB67"/>
<path d="M35.0003 45.9503C35.5893 45.9503 36.0669 46.4279 36.0669 47.0169V49.1818C36.0669 49.7709 35.5893 50.2484 35.0003 50.2484C34.4112 50.2484 33.9336 49.7709 33.9336 49.1818V47.0169C33.9336 46.4279 34.4111 45.9503 35.0003 45.9503Z" fill="#FFCB67"/>
</g>
<defs>
<clipPath id="clip0_150_5386">
<rect width="32" height="32" fill="white" transform="matrix(-1 0 0 1 51 19)"/>
</clipPath>
</defs>
</svg>
