<svg width="70" height="70" viewBox="0 0 70 70" fill="none" xmlns="http://www.w3.org/2000/svg">
<rect width="70" height="70" rx="8" fill="#FCF3EE"/>
<path d="M39.629 29.6225C40.6548 30.0564 41.6035 30.6263 42.4639 31.3213V26.4089C42.4639 22.3239 39.14 19 35.055 19H34.941C30.8596 19 27.5357 22.3239 27.5357 26.4089V31.3213C28.3961 30.6264 29.3448 30.0565 30.3706 29.6225C30.6464 29.5049 30.9295 29.3983 31.2126 29.3027V26.4089C31.2126 24.3499 32.8856 22.6769 34.9447 22.6769H35.0587C37.1177 22.6769 38.7907 24.3499 38.7907 26.4089V29.3063C39.0701 29.3983 39.3533 29.5049 39.629 29.6225Z" fill="#EEB18E"/>
<path d="M24.5797 40.5796C24.5797 46.334 29.2457 50.9999 35 50.9999C40.7543 50.9999 45.4204 46.3376 45.4204 40.5796C45.4204 37.7521 44.2915 35.1856 42.4641 33.3067C41.4346 32.2515 40.1845 31.4131 38.7872 30.8653C37.6143 30.4057 36.3347 30.1556 35 30.1556C33.6653 30.1556 32.3858 30.4057 31.2128 30.8653C29.8156 31.4095 28.5655 32.2478 27.5359 33.3067C25.7048 35.1856 24.5797 37.7521 24.5797 40.5796ZM32.3158 38.4764C32.3526 37.0535 33.5108 35.8953 34.9338 35.8621C36.4449 35.8254 37.6841 37.0425 37.6841 38.5463C37.6841 38.7044 37.6694 38.8588 37.6436 39.0059C37.5112 39.767 37.059 40.4215 36.4265 40.8186C36.1655 40.9841 36.0331 41.2929 36.0994 41.5908L36.8973 45.3743C36.9451 45.6023 36.7723 45.8192 36.5369 45.8192H33.4631C33.2277 45.8192 33.0549 45.6059 33.1027 45.3743L33.9006 41.5908C33.9631 41.2893 33.8344 40.9804 33.5734 40.8149C32.9409 40.4178 32.4887 39.767 32.3563 39.0022C32.3269 38.8331 32.3122 38.6566 32.3158 38.4764Z" fill="#EEB18E"/>
</svg>
