<svg width="215" height="54" viewBox="0 0 215 54" fill="none" xmlns="http://www.w3.org/2000/svg">
<path d="M48.498 20.0402L35.5395 6.21324C33.5368 4.07638 30.2899 4.07638 28.2871 6.21324L7.08877 28.8322C7.08856 28.8323 7.08846 28.8324 7.08835 28.8326C5.08564 30.9691 2.31153 31.4731 0.309021 29.3364L7.08856 36.5703C7.08856 36.5703 7.08867 36.5704 7.08877 36.5705L10.2669 39.9615C10.7866 40.2476 11.4012 40.0632 11.8683 39.565L11.8684 39.5649L17.8849 33.145C18.4534 32.5386 19.3749 32.5386 19.9434 33.145L23.6213 37.0695C24.1898 37.676 24.1898 38.6593 23.6213 39.2658L17.6047 45.6856C17.1376 46.184 16.4325 46.272 15.8805 45.9514L20.0473 50.3974C22.0501 52.5343 25.2969 52.5343 27.2997 50.3974L48.498 27.7785C50.5007 25.6416 50.5007 22.177 48.498 20.0402Z" fill="#7E85F9"/>
<path d="M0.308994 29.3363C2.31145 31.473 5.08561 30.9689 7.08828 28.8325C7.08843 28.8324 7.08848 28.8322 7.08875 28.8321L23.2945 11.5404L15.7353 3.40134C13.5461 1.04422 9.82189 1.76317 8.54548 4.78929L0.0656723 28.1992C-0.0736284 28.584 0.0127495 29.0202 0.286132 29.3119L5.59788 34.9797L0.308994 29.3363Z" fill="#EEB18E"/>
<path d="M72.6 32.38V28.66H80.1V24.1H72.6V20.62H80.85V16H67.8V37H81V32.38H72.6Z" fill="#7E85F9"/>
<path d="M83.7082 30.19H95.1082V25.87H83.7082V30.19ZM110.498 37H115.958L119.378 24.61L122.798 37H128.258L134.048 16H129.008L125.378 30.7L121.328 16H117.428L113.378 30.7L109.748 16H104.708L110.498 37ZM148.298 37H153.548L146.408 16H140.288L133.148 37H138.398L139.448 33.7H147.248L148.298 37ZM140.888 29.2L143.348 21.49L145.808 29.2H140.888ZM160.139 32.38V16H155.339V37H167.639V32.38H160.139ZM174.553 32.38V16H169.753V37H182.053V32.38H174.553ZM188.967 32.38V28.66H196.467V24.1H188.967V20.62H197.217V16H184.167V37H197.367V32.38H188.967ZM214.175 16H198.575V20.62H203.975V37H208.775V20.62H214.175V16Z" fill="#E4A986"/>
</svg>
