<svg width="148" height="54" viewBox="0 0 148 54" fill="none" xmlns="http://www.w3.org/2000/svg">
<g id="Group 69">
<rect id="Rectangle 4.1" x="0.404297" width="147.596" height="53.1641" rx="26.582" fill="#333C46"/>
<g id="Group 9">
<g id="PLAY 1">
<path id="Vector" d="M30.6866 14.7323V26.8325V38.9328L42.847 26.8325L30.6866 14.7323Z" fill="url(#paint0_linear_150_5226)"/>
<path id="Vector_2" d="M46.1137 23.5813L41.2032 20.7384L30.686 14.6423V14.732L42.8464 26.8323L46.1137 23.5813Z" fill="url(#paint1_linear_150_5226)"/>
<path id="Vector_3" d="M30.6866 38.9331V39.0207L41.2037 32.9268L46.1122 30.0817L42.847 26.8329L30.6866 38.9331Z" fill="url(#paint2_linear_150_5226)"/>
<path id="Vector_4" d="M46.1116 23.5813L42.8443 26.8322L46.1095 30.081L51.7203 26.8322L46.1116 23.5813Z" fill="url(#paint3_linear_150_5226)"/>
</g>
<g id="Group">
<path id="Vector_5" d="M107.246 31.5621C106.789 31.5621 106.374 31.4767 105.995 31.308C105.618 31.1392 105.301 30.8786 105.043 30.5283H104.969C105.02 30.9384 105.045 31.3293 105.045 31.6967V34.5931H103.983V24.396H104.847L104.994 25.3593H105.045C105.318 24.9748 105.637 24.695 105.999 24.5241C106.361 24.3533 106.778 24.2678 107.246 24.2678C108.177 24.2678 108.894 24.5861 109.4 25.2247C109.907 25.8634 110.158 26.7584 110.158 27.9096C110.158 29.0652 109.901 29.9644 109.388 30.6031C108.873 31.2439 108.159 31.5621 107.246 31.5621ZM107.093 25.1735C106.376 25.1735 105.859 25.3721 105.539 25.7715C105.22 26.1688 105.054 26.8032 105.045 27.6725V27.9096C105.045 28.8986 105.209 29.6056 105.539 30.0328C105.867 30.4578 106.395 30.6714 107.119 30.6714C107.725 30.6714 108.2 30.4258 108.543 29.9324C108.885 29.4411 109.058 28.7619 109.058 27.8968C109.058 27.0189 108.885 26.3461 108.543 25.8762C108.2 25.4084 107.715 25.1735 107.093 25.1735Z" fill="white"/>
<path id="Vector_6" d="M112.617 31.4334H111.555V21.4414H112.617V31.4334Z" fill="white"/>
<path id="Vector_7" d="M118.726 31.4331L118.516 30.4313H118.465C118.115 30.8734 117.766 31.1703 117.417 31.3263C117.07 31.4822 116.636 31.5612 116.115 31.5612C115.419 31.5612 114.874 31.3818 114.48 31.0208C114.086 30.662 113.888 30.1493 113.888 29.4872C113.888 28.0668 115.021 27.3213 117.285 27.253L118.475 27.2145V26.7788C118.475 26.2256 118.356 25.8176 118.12 25.5549C117.883 25.2922 117.505 25.1597 116.983 25.1597C116.398 25.1597 115.738 25.3392 114.999 25.7001L114.674 24.8842C115.021 24.6962 115.397 24.5489 115.81 24.4421C116.221 24.3353 116.634 24.2819 117.049 24.2819C117.886 24.2819 118.505 24.4677 118.907 24.8415C119.31 25.2131 119.512 25.8112 119.512 26.6336V31.4373H118.726V31.4331ZM116.325 30.6833C116.987 30.6833 117.505 30.5018 117.883 30.1387C118.26 29.7756 118.45 29.2651 118.45 28.6093V27.9728L117.388 28.0177C116.542 28.0476 115.934 28.18 115.561 28.4128C115.189 28.6456 115.001 29.0087 115.001 29.5022C115.001 29.8866 115.116 30.1814 115.35 30.3822C115.582 30.5829 115.908 30.6833 116.325 30.6833Z" fill="white"/>
<path id="Vector_8" d="M120.129 24.3955H121.268L122.804 28.409C123.141 29.3253 123.351 29.9875 123.432 30.3933H123.483C123.539 30.1754 123.656 29.8016 123.833 29.2719C124.009 28.7422 124.588 27.1189 125.569 24.3955H126.708L123.694 32.4096C123.396 33.2021 123.047 33.7638 122.647 34.0949C122.249 34.426 121.759 34.5926 121.178 34.5926C120.855 34.5926 120.533 34.5563 120.218 34.4837V33.6293C120.452 33.6805 120.716 33.7062 121.006 33.7062C121.736 33.7062 122.255 33.2961 122.568 32.4737L122.958 31.472L120.129 24.3955Z" fill="white"/>
</g>
<g id="Group_2">
<path id="Vector_9" d="M87.5721 25.0501C87.9084 25.3299 88.6129 25.9194 88.6129 27.0387C88.6129 28.128 87.9978 28.6428 87.3805 29.1298C87.1889 29.3199 86.9697 29.5271 86.9697 29.8518C86.9697 30.1743 87.1889 30.3516 87.3507 30.484L87.8786 30.8962C88.5235 31.4409 89.111 31.9429 89.111 32.9574C89.111 34.3415 87.7764 35.7385 85.2541 35.7385C83.1255 35.7385 82.0996 34.7239 82.0996 33.6324C82.0996 33.1027 82.3635 32.353 83.2298 31.8361C84.1387 31.2764 85.3712 31.2038 86.031 31.159C85.8245 30.8941 85.5904 30.6143 85.5904 30.1593C85.5904 29.9094 85.6649 29.762 85.7373 29.5848C85.5755 29.5997 85.4137 29.6147 85.2669 29.6147C83.713 29.6147 82.8318 28.4506 82.8318 27.3035C82.8318 26.6264 83.1404 25.8746 83.7705 25.3299C84.607 24.6379 85.6053 24.5204 86.3971 24.5204H89.4175L88.4788 25.0501H87.5721ZM86.5312 31.5883C86.4141 31.5733 86.3396 31.5733 86.1949 31.5733C86.0629 31.5733 85.269 31.6032 84.6538 31.8104C84.3303 31.9279 83.3916 32.2803 83.3916 33.327C83.3916 34.3714 84.4048 35.1233 85.9735 35.1233C87.3805 35.1233 88.1297 34.4441 88.1297 33.532C88.1297 32.778 87.6444 32.3829 86.5312 31.5883ZM86.9569 28.7902C87.2932 28.4506 87.323 27.9806 87.323 27.7158C87.323 26.6563 86.693 25.0074 85.4754 25.0074C85.0944 25.0074 84.6836 25.1975 84.4474 25.4944C84.1983 25.8041 84.1238 26.2014 84.1238 26.5837C84.1238 27.5705 84.6964 29.2046 85.9586 29.2046C86.3247 29.2024 86.7206 29.0251 86.9569 28.7902Z" fill="white"/>
<path id="Vector_10" d="M78.3311 31.351C76.0025 31.351 74.7573 29.5291 74.7573 27.8822C74.7573 25.9577 76.3239 24.3109 78.5504 24.3109C80.7023 24.3109 82.0497 26.0005 82.0497 27.7797C82.0518 29.5141 80.7193 31.351 78.3311 31.351ZM80.1617 30.1613C80.5129 29.6914 80.6023 29.1019 80.6023 28.5294C80.6023 27.235 79.9871 24.7659 78.1715 24.7659C77.6883 24.7659 77.2051 24.9581 76.8539 25.2657C76.2835 25.7805 76.1792 26.4255 76.1792 27.0599C76.1792 28.5145 76.8965 30.9089 78.6696 30.9089C79.24 30.911 79.8254 30.6312 80.1617 30.1613Z" fill="white"/>
<path id="Vector_11" d="M70.3955 31.351C68.0669 31.351 66.8217 29.5291 66.8217 27.8822C66.8217 25.9577 68.3883 24.3109 70.6148 24.3109C72.7667 24.3109 74.1141 26.0005 74.1141 27.7797C74.1141 29.5141 72.7816 31.351 70.3955 31.351ZM72.2261 30.1613C72.5773 29.6914 72.6667 29.1019 72.6667 28.5294C72.6667 27.235 72.0516 24.7659 70.2359 24.7659C69.7527 24.7659 69.2695 24.9581 68.9183 25.2657C68.3479 25.7805 68.2436 26.4255 68.2436 27.0599C68.2436 28.5145 68.9609 30.9089 70.734 30.9089C71.3023 30.911 71.8898 30.6312 72.2261 30.1613Z" fill="white"/>
<path id="Vector_12" d="M65.7027 31.1228L63.5976 31.6098C62.744 31.7422 61.9778 31.8597 61.1689 31.8597C57.1034 31.8597 55.5581 28.8608 55.5581 26.5112C55.5581 23.6447 57.7526 20.9855 61.5074 20.9855C62.3034 20.9855 63.0676 21.103 63.7594 21.2952C64.8641 21.6049 65.3792 21.9894 65.7027 22.2115L64.4809 23.3778L63.9658 23.4952L64.3341 22.9036C63.8339 22.4166 62.9207 21.5152 61.1838 21.5152C58.8573 21.5152 57.1055 23.288 57.1055 25.8747C57.1055 28.6514 59.1085 31.268 62.3183 31.268C63.2613 31.268 63.7466 31.0758 64.1893 30.8985V28.519L61.9671 28.6365L63.1442 28H66.2668L65.8837 28.3695C65.7794 28.4592 65.7666 28.4891 65.7368 28.6066C65.7219 28.739 65.707 29.1683 65.707 29.3157V31.1228H65.7027Z" fill="white"/>
<path id="Vector_13" d="M92.2259 30.6954C91.7406 30.6505 91.6384 30.563 91.6384 29.9863V29.8239V21.624C91.6406 21.5919 91.6427 21.5599 91.647 21.5278C91.7066 21.0109 91.8534 20.9212 92.3111 20.6564H90.2038L89.0991 21.1882H90.2251V21.1946V21.1882V29.8218V30.3109C90.2251 30.6057 90.1676 30.6505 89.8271 31.0927H92.4345L92.9794 30.768C92.7261 30.7402 92.475 30.7253 92.2259 30.6954Z" fill="white"/>
<path id="Vector_14" d="M98.2156 30.831C98.056 30.9185 97.8942 31.0232 97.7346 31.0958C97.2514 31.3158 96.7533 31.3756 96.3148 31.3756C95.8487 31.3756 95.1165 31.3457 94.3693 30.8032C93.3327 30.0684 92.8794 28.8061 92.8794 27.7061C92.8794 25.4313 94.7227 24.3163 96.2276 24.3163C96.7533 24.3163 97.2961 24.4487 97.7346 24.7264C98.4647 25.2091 98.6562 25.8414 98.7563 26.1788L95.3208 27.5736L94.1948 27.6612C94.5588 29.5238 95.8168 30.6088 97.2067 30.6088C97.9517 30.6088 98.4945 30.3461 98.9904 30.0962L98.2156 30.831ZM96.8427 26.4565C97.1194 26.354 97.2663 26.2664 97.2663 26.0614C97.2663 25.474 96.6086 24.799 95.8189 24.799C95.2335 24.799 94.1373 25.254 94.1373 26.8389C94.1373 27.0888 94.1671 27.3515 94.182 27.6163L96.8427 26.4565Z" fill="white"/>
<g id="Group_3">
<path id="Vector_15" d="M99.6286 24.4167V25.3843H99.5115V24.4167H99.1923V24.3163H99.9479V24.4167H99.6286Z" fill="white"/>
<path id="Vector_16" d="M100.943 25.3838V24.4055H100.936L100.638 25.3838H100.547L100.247 24.4055H100.243V25.3838H100.136V24.3158H100.319L100.589 25.1787H100.594L100.86 24.3158H101.045V25.3838H100.943Z" fill="white"/>
</g>
</g>
<g id="Group_4">
<path id="Vector_17" d="M58.4855 18.1053H57.7533C57.7533 18.0049 57.683 17.7187 57.5447 17.2466H56.4889C56.3463 17.7101 56.2739 17.9963 56.2739 18.1053H55.5864C55.5864 18.0455 55.7652 17.5563 56.1207 16.6357C56.4762 15.7173 56.655 15.211 56.655 15.1171H57.5191C57.5191 15.2046 57.6809 15.7023 58.0023 16.6144C58.3237 17.5264 58.4855 18.022 58.4855 18.1053ZM57.4276 16.8087C57.1679 16.0184 57.036 15.5934 57.036 15.5293H56.9998C56.9998 15.5891 56.8657 16.0163 56.5954 16.8087H57.4276Z" fill="white"/>
<path id="Vector_18" d="M61.4353 18.1061H60.8712C60.8712 18.0442 60.6626 17.7131 60.2433 17.1129C59.8048 16.4807 59.5537 16.0492 59.4941 15.8164H59.4579C59.4962 16.1517 59.5154 16.455 59.5154 16.7242C59.5154 17.1022 59.526 17.5615 59.5473 18.1061H58.9854C59.0088 17.6319 59.0194 17.1108 59.0194 16.5426C59.0194 15.9851 59.0088 15.5088 58.9854 15.1179H59.6644C59.6644 15.1991 59.8517 15.5216 60.2284 16.0876C60.6286 16.6879 60.8585 17.0958 60.9181 17.3116H60.9521C60.9159 16.9698 60.8968 16.6644 60.8968 16.3931C60.8968 15.9787 60.8861 15.5537 60.8649 15.1179H61.4374C61.4161 15.4981 61.4055 15.9723 61.4055 16.5426C61.4034 17.1193 61.414 17.6384 61.4353 18.1061Z" fill="white"/>
<path id="Vector_19" d="M64.7483 16.509C64.7483 16.9426 64.61 17.3228 64.3311 17.6475C64.0544 17.9722 63.6649 18.1345 63.1647 18.1345C62.9391 18.1345 62.6283 18.126 62.2324 18.1067C62.2515 17.6454 62.2622 17.1242 62.2622 16.5432C62.2622 15.9857 62.2515 15.5115 62.2324 15.1185H62.6326C62.6985 15.1185 62.7965 15.1164 62.9263 15.1121C63.0561 15.1079 63.1413 15.1057 63.1796 15.1057C63.7288 15.1057 64.1289 15.2424 64.3758 15.518C64.6227 15.7935 64.7483 16.1246 64.7483 16.509ZM64.1225 16.6073C64.1225 16.3125 64.0374 16.0669 63.8671 15.864C63.6968 15.6632 63.435 15.5628 63.0859 15.5628C63.0199 15.5628 62.9306 15.5692 62.8156 15.5842C62.8305 15.8896 62.839 16.21 62.839 16.5432C62.839 16.9085 62.8475 17.2716 62.8624 17.6304C62.9625 17.6496 63.0604 17.6603 63.1604 17.6603C63.4882 17.6603 63.7309 17.5578 63.8884 17.3549C64.0438 17.1498 64.1225 16.9021 64.1225 16.6073Z" fill="white"/>
<path id="Vector_20" d="M67.8011 18.1063H67.1242C66.9476 17.5638 66.8113 17.2306 66.7177 17.1045C66.624 16.9785 66.4708 16.9144 66.2601 16.9144C66.1707 16.9144 66.0876 16.9144 66.0068 16.9166C66.0068 17.3096 66.0131 17.7069 66.028 18.1084H65.3916C65.4108 17.6471 65.4214 17.1259 65.4214 16.5449C65.4214 15.9874 65.4108 15.5133 65.3916 15.1202H65.7875C65.8322 15.1202 65.928 15.1181 66.0749 15.1138C66.2196 15.1096 66.3558 15.1074 66.4793 15.1074C67.1796 15.1074 67.5287 15.3466 67.5287 15.8272C67.5287 16.2074 67.3286 16.4744 66.9305 16.624V16.6581C67.0838 16.7008 67.22 16.8205 67.335 17.0191C67.4478 17.2156 67.6053 17.5787 67.8011 18.1063ZM66.9433 15.996C66.9433 15.6927 66.7475 15.5389 66.358 15.5389C66.2154 15.5389 66.0876 15.5496 65.9791 15.5709C65.9961 15.808 66.0046 16.1177 66.0046 16.4979C66.0876 16.5001 66.16 16.5022 66.2175 16.5022C66.7028 16.5022 66.9433 16.3335 66.9433 15.996Z" fill="white"/>
<path id="Vector_21" d="M71.0803 16.5579C71.0803 17.0278 70.9377 17.4165 70.6503 17.7262C70.363 18.0359 70.0097 18.1897 69.5861 18.1897C69.1838 18.1897 68.8475 18.0488 68.575 17.7647C68.3047 17.4806 68.1685 17.1196 68.1685 16.6839C68.1685 16.214 68.3111 15.8252 68.5984 15.5155C68.8858 15.2058 69.2391 15.052 69.6627 15.052C70.065 15.052 70.4013 15.193 70.6738 15.4771C70.9441 15.7569 71.0803 16.1178 71.0803 16.5579ZM70.4503 16.6241C70.4503 16.3037 70.3694 16.0452 70.2055 15.8466C70.0416 15.6479 69.8415 15.5475 69.601 15.5475C69.3775 15.5475 69.1902 15.6479 69.0348 15.8487C68.8794 16.0495 68.8006 16.3015 68.8006 16.6091C68.8006 16.9274 68.8815 17.1858 69.0454 17.3866C69.2093 17.5853 69.4094 17.6856 69.6478 17.6856C69.8713 17.6856 70.0586 17.5853 70.214 17.3845C70.3715 17.1816 70.4503 16.9274 70.4503 16.6241Z" fill="white"/>
<path id="Vector_22" d="M72.3761 18.1061H71.729C71.7482 17.6319 71.7588 17.1108 71.7588 16.5426C71.7588 15.9851 71.7482 15.5088 71.729 15.1179H72.3761C72.3569 15.5024 72.3463 15.9787 72.3463 16.5426C72.3463 17.1193 72.3548 17.6405 72.3761 18.1061Z" fill="white"/>
<path id="Vector_23" d="M75.6899 16.509C75.6899 16.9426 75.5515 17.3228 75.2727 17.6475C74.996 17.9722 74.6064 18.1345 74.1062 18.1345C73.8806 18.1345 73.5698 18.126 73.1739 18.1067C73.1931 17.6454 73.2037 17.1242 73.2037 16.5432C73.2037 15.9857 73.1931 15.5115 73.1739 15.1185H73.5741C73.6401 15.1185 73.738 15.1164 73.8678 15.1121C73.9977 15.1079 74.0828 15.1057 74.1211 15.1057C74.6703 15.1057 75.0705 15.2424 75.3174 15.518C75.5643 15.7935 75.6899 16.1246 75.6899 16.509ZM75.0641 16.6073C75.0641 16.3125 74.9789 16.0669 74.8086 15.864C74.6384 15.6632 74.3765 15.5628 74.0275 15.5628C73.9615 15.5628 73.8721 15.5692 73.7571 15.5842C73.772 15.8896 73.7806 16.21 73.7806 16.5432C73.7806 16.9085 73.7891 17.2716 73.804 17.6304C73.904 17.6496 74.0019 17.6603 74.102 17.6603C74.4298 17.6603 74.6724 17.5578 74.8299 17.3549C74.9853 17.1498 75.0641 16.9021 75.0641 16.6073Z" fill="white"/>
<path id="Vector_24" d="M80.0836 18.1061H79.3514C79.3514 18.0057 79.2812 17.7195 79.1428 17.2475H78.0871C77.9445 17.711 77.8721 17.9972 77.8721 18.1061H77.1846C77.1846 18.0463 77.3634 17.5572 77.7188 16.6366C78.0743 15.7181 78.2531 15.2119 78.2531 15.1179H79.1173C79.1173 15.2055 79.2791 15.7032 79.6005 16.6152C79.9219 17.5273 80.0836 18.0228 80.0836 18.1061ZM79.0279 16.8096C78.7682 16.0193 78.6362 15.5942 78.6362 15.5302H78.6001C78.6001 15.59 78.466 16.0172 78.1956 16.8096H79.0279Z" fill="white"/>
<path id="Vector_25" d="M82.7529 15.9024C82.7529 16.2677 82.6166 16.5389 82.3463 16.712C82.076 16.8871 81.7439 16.9725 81.3502 16.9725C81.2778 16.9725 81.2267 16.9704 81.1969 16.9683C81.1969 17.2566 81.2054 17.6347 81.2224 18.1067H80.5796C80.5988 17.6646 80.6094 17.1434 80.6094 16.5432C80.6094 15.9921 80.5988 15.518 80.5796 15.1185H80.9777C81.033 15.1185 81.1416 15.1164 81.3033 15.1121C81.463 15.1079 81.6013 15.1057 81.7205 15.1057C82.01 15.1057 82.2548 15.1719 82.4549 15.3022C82.6528 15.4347 82.7529 15.6333 82.7529 15.9024ZM82.1633 16.0285C82.1633 15.7016 81.9461 15.5372 81.514 15.5372C81.4055 15.5372 81.2906 15.5479 81.1714 15.5714C81.1884 15.8597 81.1969 16.1886 81.1969 16.5539C81.2352 16.556 81.2799 16.5582 81.3289 16.5582C81.8844 16.5582 82.1633 16.3809 82.1633 16.0285Z" fill="white"/>
<path id="Vector_26" d="M85.495 15.9024C85.495 16.2677 85.3588 16.5389 85.0885 16.712C84.8181 16.8871 84.4861 16.9725 84.0923 16.9725C84.0199 16.9725 83.9689 16.9704 83.9391 16.9683C83.9391 17.2566 83.9476 17.6347 83.9646 18.1067H83.3218C83.3409 17.6646 83.3516 17.1434 83.3516 16.5432C83.3516 15.9921 83.3409 15.518 83.3218 15.1185H83.7198C83.7752 15.1185 83.8837 15.1164 84.0455 15.1121C84.2051 15.1079 84.3435 15.1057 84.4627 15.1057C84.7522 15.1057 84.9969 15.1719 85.197 15.3022C85.3971 15.4325 85.495 15.6333 85.495 15.9024ZM84.9033 16.0285C84.9033 15.7016 84.6862 15.5372 84.2541 15.5372C84.1455 15.5372 84.0306 15.5479 83.9114 15.5714C83.9284 15.8597 83.9369 16.1886 83.9369 16.5539C83.9752 16.556 84.0199 16.5582 84.0689 16.5582C84.6266 16.5582 84.9033 16.3809 84.9033 16.0285Z" fill="white"/>
<path id="Vector_27" d="M89.9787 16.5579C89.9787 17.0278 89.8361 17.4165 89.5488 17.7262C89.2614 18.0359 88.9081 18.1897 88.4845 18.1897C88.0822 18.1897 87.7459 18.0488 87.4734 17.7647C87.2031 17.4806 87.0669 17.1196 87.0669 16.6839C87.0669 16.214 87.2095 15.8252 87.4969 15.5155C87.7842 15.2058 88.1376 15.052 88.5611 15.052C88.9634 15.052 89.2997 15.193 89.5722 15.4771C89.8425 15.7569 89.9787 16.1178 89.9787 16.5579ZM89.3466 16.6241C89.3466 16.3037 89.2657 16.0452 89.1018 15.8466C88.9379 15.6479 88.7378 15.5475 88.4973 15.5475C88.2738 15.5475 88.0865 15.6479 87.9311 15.8487C87.7757 16.0495 87.6969 16.3015 87.6969 16.6091C87.6969 16.9274 87.7778 17.1858 87.9439 17.3866C88.1078 17.5853 88.3078 17.6856 88.5462 17.6856C88.7697 17.6856 88.957 17.5853 89.1124 17.3845C89.2699 17.1816 89.3466 16.9274 89.3466 16.6241Z" fill="white"/>
<path id="Vector_28" d="M93.0769 18.1061H92.5128C92.5128 18.0442 92.3042 17.7131 91.8849 17.1129C91.4464 16.4807 91.1953 16.0492 91.1357 15.8164H91.0995C91.1378 16.1517 91.157 16.455 91.157 16.7242C91.157 17.1022 91.1676 17.5615 91.1889 18.1061H90.627C90.6504 17.6319 90.661 17.1108 90.661 16.5426C90.661 15.9851 90.6504 15.5088 90.627 15.1179H91.306C91.306 15.1991 91.4933 15.5216 91.87 16.0876C92.2702 16.6879 92.5001 17.0958 92.5597 17.3116H92.5937C92.5575 16.9698 92.5384 16.6644 92.5384 16.3931C92.5384 15.9787 92.5277 15.5537 92.5065 15.1179H93.079C93.0578 15.4981 93.0471 15.9723 93.0471 16.5426C93.045 17.1193 93.0556 17.6384 93.0769 18.1061Z" fill="white"/>
</g>
</g>
</g>
<defs>
<linearGradient id="paint0_linear_150_5226" x1="36.7663" y1="14.7313" x2="36.7663" y2="38.9323" gradientUnits="userSpaceOnUse">
<stop stop-color="#257CB0"/>
<stop offset="0.2863" stop-color="#4A93B5"/>
<stop offset="0.767" stop-color="#78BCBB"/>
<stop offset="1" stop-color="#89CFBD"/>
</linearGradient>
<linearGradient id="paint1_linear_150_5226" x1="30.6852" y1="20.7374" x2="46.1128" y2="20.7374" gradientUnits="userSpaceOnUse">
<stop stop-color="#52C1AD"/>
<stop offset="1" stop-color="#DEE89A"/>
</linearGradient>
<linearGradient id="paint2_linear_150_5226" x1="38.3994" y1="26.8324" x2="38.3994" y2="39.0207" gradientUnits="userSpaceOnUse">
<stop stop-color="#EC413D"/>
<stop offset="0.1668" stop-color="#DA4452"/>
<stop offset="0.5748" stop-color="#B0487A"/>
<stop offset="0.8619" stop-color="#954A92"/>
<stop offset="1" stop-color="#8A4A9D"/>
</linearGradient>
<linearGradient id="paint3_linear_150_5226" x1="47.2824" y1="23.5814" x2="47.2824" y2="30.0815" gradientUnits="userSpaceOnUse">
<stop stop-color="#F58879"/>
<stop offset="0.1194" stop-color="#F69079"/>
<stop offset="0.7128" stop-color="#FCB877"/>
<stop offset="1" stop-color="#FEC874"/>
</linearGradient>
</defs>
</svg>
