<svg width="178" height="110" viewBox="0 0 178 110" fill="none" xmlns="http://www.w3.org/2000/svg">
<path d="M169.768 80.6937C169.144 81.4194 168.489 82.131 167.803 82.8271C153.879 96.9915 132.579 100.732 113.481 101.338L113.481 101.338C95.2667 101.901 77.1389 99.8252 59.215 96.6925C63.2366 97.9518 67.2983 99.0581 71.3705 100.023M169.768 80.6937L71.313 100.266M169.768 80.6937C169.355 82.2144 168.83 83.7133 168.178 85.1825M169.768 80.6937L168.407 85.2839M71.3705 100.023C71.3705 100.023 71.3706 100.023 71.3706 100.023L71.313 100.266M71.3705 100.023C71.3704 100.023 71.3703 100.023 71.3703 100.023L71.313 100.266M71.3705 100.023C88.9543 104.164 107.489 106.757 125.555 105.616L125.555 105.616C133.283 105.133 142.209 103.937 150.072 100.9C157.933 97.8628 164.707 92.9954 168.178 85.1825M71.313 100.266C88.9107 104.411 107.472 107.009 125.571 105.866C141.046 104.898 161.392 101.073 168.407 85.2839M168.178 85.1825L168.407 85.2839M168.178 85.1825C168.178 85.1825 168.179 85.1825 168.179 85.1824L168.407 85.2839M55.6855 95.8077C56.2468 95.9971 56.809 96.1834 57.3721 96.3666L55.6855 95.8077ZM55.6855 95.8077C56.2678 95.914 56.8503 96.0193 57.433 96.1235L55.6855 95.8077ZM174.164 74.3743C173.942 76.6382 173.543 78.8689 172.951 81.0465L172.709 80.9809L4.91981 67.3199C4.46135 66.268 4.07353 65.2136 3.75243 64.1581M174.164 74.3743C175.655 71.6339 176.704 68.7702 177.237 65.8398C178.353 59.7085 177.211 53.302 173.17 47.151M174.164 74.3743C174.063 74.5604 173.96 74.7459 173.854 74.9308L154.54 24.3187M174.164 74.3743C174.185 74.1608 174.204 73.947 174.222 73.733C178.529 65.4567 178.762 56.1178 172.961 47.2883M173.17 47.151C170.922 43.7222 168.135 40.6609 165.002 37.9033M173.17 47.151C173.17 47.1511 173.17 47.1511 173.171 47.1512L172.961 47.2883M173.17 47.151L172.961 47.2883M165.002 37.9033C162.021 32.7574 158.504 28.0676 154.72 24.1451L154.54 24.3187M165.002 37.9033C165.134 38.1304 165.265 38.3585 165.394 38.5874C168.285 41.2012 170.86 44.084 172.961 47.2883M165.002 37.9033C164.807 37.7314 164.61 37.5607 164.413 37.3912C161.522 32.5127 158.153 28.064 154.54 24.3187M154.54 24.3187L154.72 24.1451C138.513 7.34971 114.731 1.91135 92.3138 0.631152L92.3136 0.631143C81.0447 -0.00684891 69.6477 0.594039 58.7282 2.98999C45.1779 5.21047 31.9277 10.9071 21.1567 18.0655L21.1565 18.0656C13.8809 22.9117 7.34132 29.6064 3.61296 37.2968C-0.118381 44.9933 -1.03402 53.6904 2.95417 62.5075C3.20626 63.0657 3.47257 63.6158 3.75243 64.1581M3.75243 64.1581C3.97055 64.5808 4.19689 64.9986 4.43114 65.4118C4.27008 64.9628 4.12153 64.5135 3.98518 64.064C3.77935 63.6658 3.5809 63.2633 3.39009 62.8566C3.49979 63.2905 3.62048 63.7244 3.75243 64.1581ZM150.44 24.3058C153.136 26.7645 155.547 29.4615 157.69 32.3445C150.827 27.7851 143.18 24.1945 136.143 21.1065L136.142 21.1064C121.498 14.6964 106.526 10.4149 90.7816 7.93587L90.7809 7.93575C87.0241 7.35559 83.2566 6.75306 79.5113 6.13997C79.0235 6.05786 78.6188 6.18516 78.3315 6.45223C78.0507 6.71324 77.9047 7.08628 77.8798 7.4624C77.8304 8.21078 78.2632 9.07296 79.2485 9.23728L79.2489 9.23734C81.5897 9.62405 83.9308 9.98536 86.2688 10.3462C94.3892 11.5994 102.471 12.8468 110.367 15.1313C117.507 17.2147 124.545 19.6877 131.445 22.4998L131.445 22.4999C142.088 26.832 153.647 32.2363 162.573 40.0476C165.295 45.1097 167.365 50.535 168.849 56.1085C170.363 61.8238 171.281 67.8069 170.909 73.6524C167.065 80.0432 160.785 85.5198 154.349 89.0636L154.469 89.2826L154.349 89.0636C135.244 99.5859 110.823 99.2563 89.5495 97.6002C73.4663 96.3404 56.0847 94.5027 40.3525 89.4296C34.901 86.8896 29.6265 83.999 24.6145 80.7233C17.312 75.9435 10.4104 69.9485 6.33322 62.2239C3.65409 52.5442 8.13256 42.4749 13.7449 34.4986C24.3885 19.3995 40.4482 10.5929 57.9193 6.44129C66.6777 4.79197 75.7747 4.53452 84.252 6.63263C85.2131 6.8756 85.9496 6.25471 86.2007 5.55077C86.327 5.1964 86.3419 4.79645 86.1883 4.44568C86.0311 4.08652 85.7102 3.80939 85.2294 3.6918C84.94 3.62007 84.65 3.55073 84.3595 3.48374C107.787 3.35507 132.759 8.18208 150.44 24.3058ZM39.529 92.1363C40.0662 92.3813 40.6004 92.6223 41.131 92.8594C40.5688 92.7018 40.0053 92.539 39.4411 92.3709C38.878 92.1142 38.3116 91.853 37.7426 91.5873C38.3384 91.7763 38.9341 91.9592 39.529 92.1363ZM3.55396 48.0388C4.20709 42.3658 6.74633 36.8643 10.2924 32.1637L10.2925 32.1636C13.0581 28.494 16.4071 25.2906 20.118 22.4861C15.1302 27.1047 10.5359 32.6231 7.29494 38.638C5.66606 41.661 4.3778 44.8121 3.55396 48.0388ZM170.846 50.5409C170.519 49.6126 170.173 48.69 169.808 47.7746C170.137 48.2146 170.459 48.6609 170.772 49.1134L170.977 48.9712L170.772 49.1135C174.592 54.6354 175.386 60.303 174.193 65.6664C173.76 60.5947 172.585 55.4837 170.846 50.5409ZM41.7297 93.1261L41.6281 93.3545C41.6281 93.3546 41.6282 93.3546 41.6283 93.3546L41.7297 93.1261Z" fill="#EEB18E" stroke="#EEB18E" stroke-width="0.5"/>
</svg>
